<?xml version="1.0" encoding="UTF-8" standalone="no"?>
<!DOCTYPE svg PUBLIC "-//W3C//DTD SVG 1.1//EN"
 "http://www.w3.org/Graphics/SVG/1.1/DTD/svg11.dtd">
<!-- Generated by graphviz version 2.44.1 (20200629.0846)
 -->
<!-- Title: dependencies Pages: 1 -->
<svg width="1762pt" height="284pt"
 viewBox="0.00 0.00 1762.00 284.00" xmlns="http://www.w3.org/2000/svg" xmlns:xlink="http://www.w3.org/1999/xlink">
<g id="graph0" class="graph" transform="scale(1 1) rotate(0) translate(4 280)">
<title>dependencies</title>
<polygon fill="white" stroke="transparent" points="-4,4 -4,-280 1758,-280 1758,4 -4,4"/>
<text text-anchor="start" x="856.01" y="-42.4" font-family="sans-serif" font-weight="bold" font-size="14.00">Legend</text>
<polygon fill="#ffffb3" stroke="transparent" points="643,-10 643,-30 663,-30 663,-10 643,-10"/>
<text text-anchor="start" x="666.63" y="-15.4" font-family="sans-serif" font-size="14.00"> &#160;Declarations</text>
<polygon fill="#8dd3c7" stroke="transparent" points="756,-10 756,-30 776,-30 776,-10 756,-10"/>
<text text-anchor="start" x="779.73" y="-15.4" font-family="sans-serif" font-size="14.00"> &#160;Module</text>
<polygon fill="#80b1d3" stroke="transparent" points="842,-10 842,-30 862,-30 862,-10 842,-10"/>
<text text-anchor="start" x="865.78" y="-15.4" font-family="sans-serif" font-size="14.00"> &#160;Bootstrap</text>
<polygon fill="#fdb462" stroke="transparent" points="939,-10 939,-30 959,-30 959,-10 939,-10"/>
<text text-anchor="start" x="962.67" y="-15.4" font-family="sans-serif" font-size="14.00"> &#160;Providers</text>
<polygon fill="#fb8072" stroke="transparent" points="1035,-10 1035,-30 1055,-30 1055,-10 1035,-10"/>
<text text-anchor="start" x="1058.73" y="-15.4" font-family="sans-serif" font-size="14.00"> &#160;Exports</text>
<g id="clust1" class="cluster">
<title>cluster_AppModule</title>
<polygon fill="none" stroke="black" stroke-dasharray="1,5" points="8,-70 8,-268 1746,-268 1746,-70 8,-70"/>
</g>
<g id="clust13" class="cluster">
<title>cluster_AppModule_bootstrap</title>
<polygon fill="none" stroke="black" points="970,-208 970,-260 1094,-260 1094,-208 970,-208"/>
</g>
<g id="clust11" class="cluster">
<title>cluster_AppModule_imports</title>
<polygon fill="none" stroke="black" points="1541,-78 1541,-130 1738,-130 1738,-78 1541,-78"/>
</g>
<g id="clust2" class="cluster">
<title>cluster_AppModule_declarations</title>
<polygon fill="none" stroke="black" points="16,-78 16,-130 1533,-130 1533,-78 16,-78"/>
</g>
<!-- AppComponent -->
<g id="node1" class="node">
<title>AppComponent</title>
<polygon fill="#ffffb3" stroke="black" points="1524.94,-122 1419.06,-122 1419.06,-86 1524.94,-86 1524.94,-122"/>
<text text-anchor="middle" x="1472" y="-99.8" font-family="Times,serif" font-size="14.00">AppComponent</text>
</g>
<!-- AppModule -->
<g id="node9" class="node">
<title>AppModule</title>
<polygon fill="#8dd3c7" stroke="black" points="1073.66,-187 1070.66,-191 1049.66,-191 1046.66,-187 990.34,-187 990.34,-151 1073.66,-151 1073.66,-187"/>
<text text-anchor="middle" x="1032" y="-164.8" font-family="Times,serif" font-size="14.00">AppModule</text>
</g>
<!-- AppComponent&#45;&gt;AppModule -->
<g id="edge1" class="edge">
<title>AppComponent&#45;&gt;AppModule</title>
<path fill="none" stroke="black" d="M1472,-122.27C1472,-140.56 1472,-166 1472,-166 1472,-166 1083.79,-166 1083.79,-166"/>
<polygon fill="black" stroke="black" points="1083.79,-162.5 1073.79,-166 1083.79,-169.5 1083.79,-162.5"/>
</g>
<!-- IPComponentComponent -->
<g id="node2" class="node">
<title>IPComponentComponent</title>
<polygon fill="#ffffb3" stroke="black" points="1401.61,-122 1242.39,-122 1242.39,-86 1401.61,-86 1401.61,-122"/>
<text text-anchor="middle" x="1322" y="-99.8" font-family="Times,serif" font-size="14.00">IPComponentComponent</text>
</g>
<!-- IPComponentComponent&#45;&gt;AppModule -->
<g id="edge2" class="edge">
<title>IPComponentComponent&#45;&gt;AppModule</title>
<path fill="none" stroke="black" d="M1322,-122.01C1322,-138.05 1322,-159 1322,-159 1322,-159 1083.86,-159 1083.86,-159"/>
<polygon fill="black" stroke="black" points="1083.86,-155.5 1073.86,-159 1083.86,-162.5 1083.86,-155.5"/>
</g>
<!-- CodeComponentComponent -->
<g id="node3" class="node">
<title>CodeComponentComponent</title>
<polygon fill="#ffffb3" stroke="black" points="1224.22,-122 1047.78,-122 1047.78,-86 1224.22,-86 1224.22,-122"/>
<text text-anchor="middle" x="1136" y="-99.8" font-family="Times,serif" font-size="14.00">CodeComponentComponent</text>
</g>
<!-- CodeComponentComponent&#45;&gt;AppModule -->
<g id="edge3" class="edge">
<title>CodeComponentComponent&#45;&gt;AppModule</title>
<path fill="none" stroke="black" d="M1060.86,-122.11C1060.86,-122.11 1060.86,-140.99 1060.86,-140.99"/>
<polygon fill="black" stroke="black" points="1057.36,-140.99 1060.86,-150.99 1064.36,-140.99 1057.36,-140.99"/>
</g>
<!-- MainPageComponentComponent -->
<g id="node4" class="node">
<title>MainPageComponentComponent</title>
<polygon fill="#ffffb3" stroke="black" points="1029.93,-122 826.07,-122 826.07,-86 1029.93,-86 1029.93,-122"/>
<text text-anchor="middle" x="928" y="-99.8" font-family="Times,serif" font-size="14.00">MainPageComponentComponent</text>
</g>
<!-- MainPageComponentComponent&#45;&gt;AppModule -->
<g id="edge4" class="edge">
<title>MainPageComponentComponent&#45;&gt;AppModule</title>
<path fill="none" stroke="black" d="M1009.94,-122.11C1009.94,-122.11 1009.94,-140.99 1009.94,-140.99"/>
<polygon fill="black" stroke="black" points="1006.44,-140.99 1009.94,-150.99 1013.44,-140.99 1006.44,-140.99"/>
</g>
<!-- TemperatureComponentComponent -->
<g id="node5" class="node">
<title>TemperatureComponentComponent</title>
<polygon fill="#ffffb3" stroke="black" points="808.18,-122 589.82,-122 589.82,-86 808.18,-86 808.18,-122"/>
<text text-anchor="middle" x="699" y="-99.8" font-family="Times,serif" font-size="14.00">TemperatureComponentComponent</text>
</g>
<!-- TemperatureComponentComponent&#45;&gt;AppModule -->
<g id="edge5" class="edge">
<title>TemperatureComponentComponent&#45;&gt;AppModule</title>
<path fill="none" stroke="black" d="M699,-122.01C699,-138.05 699,-159 699,-159 699,-159 980.16,-159 980.16,-159"/>
<polygon fill="black" stroke="black" points="980.16,-162.5 990.16,-159 980.16,-155.5 980.16,-162.5"/>
</g>
<!-- NotFoundComponentComponent -->
<g id="node6" class="node">
<title>NotFoundComponentComponent</title>
<polygon fill="#ffffb3" stroke="black" points="571.95,-122 368.05,-122 368.05,-86 571.95,-86 571.95,-122"/>
<text text-anchor="middle" x="470" y="-99.8" font-family="Times,serif" font-size="14.00">NotFoundComponentComponent</text>
</g>
<!-- NotFoundComponentComponent&#45;&gt;AppModule -->
<g id="edge6" class="edge">
<title>NotFoundComponentComponent&#45;&gt;AppModule</title>
<path fill="none" stroke="black" d="M470,-122.27C470,-140.56 470,-166 470,-166 470,-166 980.22,-166 980.22,-166"/>
<polygon fill="black" stroke="black" points="980.22,-169.5 990.22,-166 980.22,-162.5 980.22,-169.5"/>
</g>
<!-- WeatherComponentComponent -->
<g id="node7" class="node">
<title>WeatherComponentComponent</title>
<polygon fill="#ffffb3" stroke="black" points="350.07,-122 155.93,-122 155.93,-86 350.07,-86 350.07,-122"/>
<text text-anchor="middle" x="253" y="-99.8" font-family="Times,serif" font-size="14.00">WeatherComponentComponent</text>
</g>
<!-- WeatherComponentComponent&#45;&gt;AppModule -->
<g id="edge7" class="edge">
<title>WeatherComponentComponent&#45;&gt;AppModule</title>
<path fill="none" stroke="black" d="M253,-122.13C253,-142.57 253,-173 253,-173 253,-173 980.12,-173 980.12,-173"/>
<polygon fill="black" stroke="black" points="980.12,-176.5 990.12,-173 980.12,-169.5 980.12,-176.5"/>
</g>
<!-- TempComponent -->
<g id="node8" class="node">
<title>TempComponent</title>
<polygon fill="#ffffb3" stroke="black" points="137.99,-122 24.01,-122 24.01,-86 137.99,-86 137.99,-122"/>
<text text-anchor="middle" x="81" y="-99.8" font-family="Times,serif" font-size="14.00">TempComponent</text>
</g>
<!-- TempComponent&#45;&gt;AppModule -->
<g id="edge8" class="edge">
<title>TempComponent&#45;&gt;AppModule</title>
<path fill="none" stroke="black" d="M81,-122.01C81,-144.49 81,-180 81,-180 81,-180 980.22,-180 980.22,-180"/>
<polygon fill="black" stroke="black" points="980.22,-183.5 990.22,-180 980.22,-176.5 980.22,-183.5"/>
</g>
<!-- AppComponent  -->
<g id="node12" class="node">
<title>AppComponent </title>
<polygon fill="#80b1d3" stroke="black" points="1086.44,-252 977.56,-252 977.56,-216 1086.44,-216 1086.44,-252"/>
<text text-anchor="middle" x="1032" y="-229.8" font-family="Times,serif" font-size="14.00">AppComponent </text>
</g>
<!-- AppModule&#45;&gt;AppComponent  -->
<g id="edge11" class="edge">
<title>AppModule&#45;&gt;AppComponent </title>
<path fill="none" stroke="black" stroke-dasharray="1,5" d="M1032,-187.11C1032,-187.11 1032,-205.99 1032,-205.99"/>
<polygon fill="black" stroke="black" points="1028.5,-205.99 1032,-215.99 1035.5,-205.99 1028.5,-205.99"/>
</g>
<!-- BrowserModule -->
<g id="node10" class="node">
<title>BrowserModule</title>
<polygon fill="#8dd3c7" stroke="black" points="1730.47,-122 1727.47,-126 1706.47,-126 1703.47,-122 1623.53,-122 1623.53,-86 1730.47,-86 1730.47,-122"/>
<text text-anchor="middle" x="1677" y="-99.8" font-family="Times,serif" font-size="14.00">BrowserModule</text>
</g>
<!-- BrowserModule&#45;&gt;AppModule -->
<g id="edge9" class="edge">
<title>BrowserModule&#45;&gt;AppModule</title>
<path fill="none" stroke="black" d="M1677,-122.01C1677,-144.49 1677,-180 1677,-180 1677,-180 1083.82,-180 1083.82,-180"/>
<polygon fill="black" stroke="black" points="1083.82,-176.5 1073.82,-180 1083.82,-183.5 1083.82,-176.5"/>
</g>
<!-- routing -->
<g id="node11" class="node">
<title>routing</title>
<polygon fill="#8dd3c7" stroke="black" points="1605.44,-122 1602.44,-126 1581.44,-126 1578.44,-122 1548.56,-122 1548.56,-86 1605.44,-86 1605.44,-122"/>
<text text-anchor="middle" x="1577" y="-99.8" font-family="Times,serif" font-size="14.00">routing</text>
</g>
<!-- routing&#45;&gt;AppModule -->
<g id="edge10" class="edge">
<title>routing&#45;&gt;AppModule</title>
<path fill="none" stroke="black" d="M1577,-122.13C1577,-142.57 1577,-173 1577,-173 1577,-173 1083.86,-173 1083.86,-173"/>
<polygon fill="black" stroke="black" points="1083.86,-169.5 1073.86,-173 1083.86,-176.5 1083.86,-169.5"/>
</g>
</g>
</svg>
