<?xml version="1.0" encoding="UTF-8" standalone="no"?>
<!DOCTYPE svg PUBLIC "-//W3C//DTD SVG 1.1//EN"
 "http://www.w3.org/Graphics/SVG/1.1/DTD/svg11.dtd">
<!-- Generated by graphviz version 2.44.1 (20200629.0846)
 -->
<!-- Title: dependencies Pages: 1 -->
<svg width="1762pt" height="284pt"
 viewBox="0.00 0.00 1762.00 284.00" xmlns="http://www.w3.org/2000/svg" xmlns:xlink="http://www.w3.org/1999/xlink">
<g id="graph0" class="graph" transform="scale(1 1) rotate(0) translate(4 280)">
<title>dependencies</title>
<polygon fill="white" stroke="transparent" points="-4,4 -4,-280 1758,-280 1758,4 -4,4"/>
<text text-anchor="start" x="856.01" y="-42.4" font-family="sans-serif" font-weight="bold" font-size="14.00">Legend</text>
<polygon fill="#ffffb3" stroke="transparent" points="643,-10 643,-30 663,-30 663,-10 643,-10"/>
<text text-anchor="start" x="666.63" y="-15.4" font-family="sans-serif" font-size="14.00"> &#160;Declarations</text>
<polygon fill="#8dd3c7" stroke="transparent" points="756,-10 756,-30 776,-30 776,-10 756,-10"/>
<text text-anchor="start" x="779.73" y="-15.4" font-family="sans-serif" font-size="14.00"> &#160;Module</text>
<polygon fill="#80b1d3" stroke="transparent" points="842,-10 842,-30 862,-30 862,-10 842,-10"/>
<text text-anchor="start" x="865.78" y="-15.4" font-family="sans-serif" font-size="14.00"> &#160;Bootstrap</text>
<polygon fill="#fdb462" stroke="transparent" points="939,-10 939,-30 959,-30 959,-10 939,-10"/>
<text text-anchor="start" x="962.67" y="-15.4" font-family="sans-serif" font-size="14.00"> &#160;Providers</text>
<polygon fill="#fb8072" stroke="transparent" points="1035,-10 1035,-30 1055,-30 1055,-10 1035,-10"/>
<text text-anchor="start" x="1058.73" y="-15.4" font-family="sans-serif" font-size="14.00"> &#160;Exports</text>
<g id="clust1" class="cluster">
<title>cluster_AppModule</title>
<polygon fill="none" stroke="black" stroke-dasharray="1,5" points="8,-70 8,-268 1746,-268 1746,-70 8,-70"/>
</g>
<g id="clust2" class="cluster">
<title>cluster_AppModule_declarations</title>
<polygon fill="none" stroke="black" points="221,-78 221,-130 1738,-130 1738,-78 221,-78"/>
</g>
<g id="clust11" class="cluster">
<title>cluster_AppModule_imports</title>
<polygon fill="none" stroke="black" points="16,-78 16,-130 213,-130 213,-78 16,-78"/>
</g>
<g id="clust13" class="cluster">
<title>cluster_AppModule_bootstrap</title>
<polygon fill="none" stroke="black" points="727,-208 727,-260 851,-260 851,-208 727,-208"/>
</g>
<!-- AppComponent -->
<g id="node1" class="node">
<title>AppComponent</title>
<polygon fill="#ffffb3" stroke="black" points="1729.94,-122 1624.06,-122 1624.06,-86 1729.94,-86 1729.94,-122"/>
<text text-anchor="middle" x="1677" y="-99.8" font-family="Times,serif" font-size="14.00">AppComponent</text>
</g>
<!-- AppModule -->
<g id="node9" class="node">
<title>AppModule</title>
<polygon fill="#8dd3c7" stroke="black" points="830.66,-187 827.66,-191 806.66,-191 803.66,-187 747.34,-187 747.34,-151 830.66,-151 830.66,-187"/>
<text text-anchor="middle" x="789" y="-164.8" font-family="Times,serif" font-size="14.00">AppModule</text>
</g>
<!-- AppComponent&#45;&gt;AppModule -->
<g id="edge1" class="edge">
<title>AppComponent&#45;&gt;AppModule</title>
<path fill="none" stroke="black" d="M1677,-122.01C1677,-144.49 1677,-180 1677,-180 1677,-180 840.94,-180 840.94,-180"/>
<polygon fill="black" stroke="black" points="840.94,-176.5 830.94,-180 840.94,-183.5 840.94,-176.5"/>
</g>
<!-- IPComponentComponent -->
<g id="node2" class="node">
<title>IPComponentComponent</title>
<polygon fill="#ffffb3" stroke="black" points="1606.61,-122 1447.39,-122 1447.39,-86 1606.61,-86 1606.61,-122"/>
<text text-anchor="middle" x="1527" y="-99.8" font-family="Times,serif" font-size="14.00">IPComponentComponent</text>
</g>
<!-- IPComponentComponent&#45;&gt;AppModule -->
<g id="edge2" class="edge">
<title>IPComponentComponent&#45;&gt;AppModule</title>
<path fill="none" stroke="black" d="M1527,-122.13C1527,-142.57 1527,-173 1527,-173 1527,-173 840.79,-173 840.79,-173"/>
<polygon fill="black" stroke="black" points="840.79,-169.5 830.79,-173 840.79,-176.5 840.79,-169.5"/>
</g>
<!-- CodeComponentComponent -->
<g id="node3" class="node">
<title>CodeComponentComponent</title>
<polygon fill="#ffffb3" stroke="black" points="1429.22,-122 1252.78,-122 1252.78,-86 1429.22,-86 1429.22,-122"/>
<text text-anchor="middle" x="1341" y="-99.8" font-family="Times,serif" font-size="14.00">CodeComponentComponent</text>
</g>
<!-- CodeComponentComponent&#45;&gt;AppModule -->
<g id="edge3" class="edge">
<title>CodeComponentComponent&#45;&gt;AppModule</title>
<path fill="none" stroke="black" d="M1341,-122.27C1341,-140.56 1341,-166 1341,-166 1341,-166 840.94,-166 840.94,-166"/>
<polygon fill="black" stroke="black" points="840.94,-162.5 830.94,-166 840.94,-169.5 840.94,-162.5"/>
</g>
<!-- MainPageComponentComponent -->
<g id="node4" class="node">
<title>MainPageComponentComponent</title>
<polygon fill="#ffffb3" stroke="black" points="1234.93,-122 1031.07,-122 1031.07,-86 1234.93,-86 1234.93,-122"/>
<text text-anchor="middle" x="1133" y="-99.8" font-family="Times,serif" font-size="14.00">MainPageComponentComponent</text>
</g>
<!-- MainPageComponentComponent&#45;&gt;AppModule -->
<g id="edge4" class="edge">
<title>MainPageComponentComponent&#45;&gt;AppModule</title>
<path fill="none" stroke="black" d="M1133,-122.01C1133,-138.05 1133,-159 1133,-159 1133,-159 840.84,-159 840.84,-159"/>
<polygon fill="black" stroke="black" points="840.84,-155.5 830.84,-159 840.84,-162.5 840.84,-155.5"/>
</g>
<!-- TemperatureComponentComponent -->
<g id="node5" class="node">
<title>TemperatureComponentComponent</title>
<polygon fill="#ffffb3" stroke="black" points="1013.18,-122 794.82,-122 794.82,-86 1013.18,-86 1013.18,-122"/>
<text text-anchor="middle" x="904" y="-99.8" font-family="Times,serif" font-size="14.00">TemperatureComponentComponent</text>
</g>
<!-- TemperatureComponentComponent&#45;&gt;AppModule -->
<g id="edge5" class="edge">
<title>TemperatureComponentComponent&#45;&gt;AppModule</title>
<path fill="none" stroke="black" d="M812.87,-122.11C812.87,-122.11 812.87,-140.99 812.87,-140.99"/>
<polygon fill="black" stroke="black" points="809.37,-140.99 812.87,-150.99 816.37,-140.99 809.37,-140.99"/>
</g>
<!-- NotFoundComponentComponent -->
<g id="node6" class="node">
<title>NotFoundComponentComponent</title>
<polygon fill="#ffffb3" stroke="black" points="776.95,-122 573.05,-122 573.05,-86 776.95,-86 776.95,-122"/>
<text text-anchor="middle" x="675" y="-99.8" font-family="Times,serif" font-size="14.00">NotFoundComponentComponent</text>
</g>
<!-- NotFoundComponentComponent&#45;&gt;AppModule -->
<g id="edge6" class="edge">
<title>NotFoundComponentComponent&#45;&gt;AppModule</title>
<path fill="none" stroke="black" d="M761.95,-122.11C761.95,-122.11 761.95,-140.99 761.95,-140.99"/>
<polygon fill="black" stroke="black" points="758.45,-140.99 761.95,-150.99 765.45,-140.99 758.45,-140.99"/>
</g>
<!-- WeatherComponentComponent -->
<g id="node7" class="node">
<title>WeatherComponentComponent</title>
<polygon fill="#ffffb3" stroke="black" points="555.07,-122 360.93,-122 360.93,-86 555.07,-86 555.07,-122"/>
<text text-anchor="middle" x="458" y="-99.8" font-family="Times,serif" font-size="14.00">WeatherComponentComponent</text>
</g>
<!-- WeatherComponentComponent&#45;&gt;AppModule -->
<g id="edge7" class="edge">
<title>WeatherComponentComponent&#45;&gt;AppModule</title>
<path fill="none" stroke="black" d="M458,-122.01C458,-138.05 458,-159 458,-159 458,-159 737.08,-159 737.08,-159"/>
<polygon fill="black" stroke="black" points="737.08,-162.5 747.08,-159 737.08,-155.5 737.08,-162.5"/>
</g>
<!-- TempComponent -->
<g id="node8" class="node">
<title>TempComponent</title>
<polygon fill="#ffffb3" stroke="black" points="342.99,-122 229.01,-122 229.01,-86 342.99,-86 342.99,-122"/>
<text text-anchor="middle" x="286" y="-99.8" font-family="Times,serif" font-size="14.00">TempComponent</text>
</g>
<!-- TempComponent&#45;&gt;AppModule -->
<g id="edge8" class="edge">
<title>TempComponent&#45;&gt;AppModule</title>
<path fill="none" stroke="black" d="M286,-122.27C286,-140.56 286,-166 286,-166 286,-166 736.98,-166 736.98,-166"/>
<polygon fill="black" stroke="black" points="736.98,-169.5 746.98,-166 736.98,-162.5 736.98,-169.5"/>
</g>
<!-- AppComponent  -->
<g id="node12" class="node">
<title>AppComponent </title>
<polygon fill="#80b1d3" stroke="black" points="843.44,-252 734.56,-252 734.56,-216 843.44,-216 843.44,-252"/>
<text text-anchor="middle" x="789" y="-229.8" font-family="Times,serif" font-size="14.00">AppComponent </text>
</g>
<!-- AppModule&#45;&gt;AppComponent  -->
<g id="edge11" class="edge">
<title>AppModule&#45;&gt;AppComponent </title>
<path fill="none" stroke="black" stroke-dasharray="1,5" d="M789,-187.11C789,-187.11 789,-205.99 789,-205.99"/>
<polygon fill="black" stroke="black" points="785.5,-205.99 789,-215.99 792.5,-205.99 785.5,-205.99"/>
</g>
<!-- BrowserModule -->
<g id="node10" class="node">
<title>BrowserModule</title>
<polygon fill="#8dd3c7" stroke="black" points="205.47,-122 202.47,-126 181.47,-126 178.47,-122 98.53,-122 98.53,-86 205.47,-86 205.47,-122"/>
<text text-anchor="middle" x="152" y="-99.8" font-family="Times,serif" font-size="14.00">BrowserModule</text>
</g>
<!-- BrowserModule&#45;&gt;AppModule -->
<g id="edge9" class="edge">
<title>BrowserModule&#45;&gt;AppModule</title>
<path fill="none" stroke="black" d="M152,-122.13C152,-142.57 152,-173 152,-173 152,-173 737.2,-173 737.2,-173"/>
<polygon fill="black" stroke="black" points="737.2,-176.5 747.2,-173 737.2,-169.5 737.2,-176.5"/>
</g>
<!-- routing -->
<g id="node11" class="node">
<title>routing</title>
<polygon fill="#8dd3c7" stroke="black" points="80.44,-122 77.44,-126 56.44,-126 53.44,-122 23.56,-122 23.56,-86 80.44,-86 80.44,-122"/>
<text text-anchor="middle" x="52" y="-99.8" font-family="Times,serif" font-size="14.00">routing</text>
</g>
<!-- routing&#45;&gt;AppModule -->
<g id="edge10" class="edge">
<title>routing&#45;&gt;AppModule</title>
<path fill="none" stroke="black" d="M52,-122.01C52,-144.49 52,-180 52,-180 52,-180 737.26,-180 737.26,-180"/>
<polygon fill="black" stroke="black" points="737.26,-183.5 747.26,-180 737.26,-176.5 737.26,-183.5"/>
</g>
</g>
</svg>
